EPIC EPISODE!!!!!

 
http://img683.imageshack.us/img683/5828/thebigbangtheorys05e07s.jpg



Format profile                   : Base Media
Codec ID                         : isom
File size                        : 44.8 MiB
Duration                         : 19mn 25s
Overall bit rate                 : 322 Kbps

Video
ID                               : 1
Format                           : AVC
Format/Info                      : Advanced Video Codec
Format profile                   : High@L3.0
Format settings, CABAC           : Yes
Format settings, ReFrames        : 5 frames
Format settings, GOP             : M=4, N=32
Codec ID                         : avc1
Codec ID/Info                    : Advanced Video Coding
Duration                         : 19mn 25s
Bit rate                         : 179 Kbps
Maximum bit rate                 : 2 217 Kbps
Width                            : 624 pixels
Height                           : 352 pixels
Display aspect ratio             : 16:9
Frame rate mode                  : Constant
Frame rate                       : 23.976 fps
Color space                      : YUV
Chroma subsampling               : 4:2:0
Bit depth                        : 8 bits
Scan type                        : Progressive
Bits/(Pixel*Frame)               : 0.034
Stream size                      : 24.9 MiB (55%)

Audio
ID                               : 2
Format                           : AAC
Format/Info                      : Advanced Audio Codec
Format profile                   : LC
Codec ID                         : 40
Duration                         : 19mn 25s
Bit rate mode                    : Variable
Bit rate                         : 139 Kbps
Maximum bit rate                 : 193 Kbps
Channel(s)                       : 2 channels
Channel positions                : Front: L R
Sampling rate                    : 48.0 KHz
Compression mode                 : Lossy
Stream size                      : 19.4 MiB (43%)


